<svg width="20" height="21" viewBox="0 0 20 21" fill="#e5e7eb" xmlns="http://www.w3.org/2000/svg">
<path fill-rule="evenodd" clip-rule="evenodd" d="M10.0003 0C6.2331 0 3.06312 2.906 2.62657 6.75971L2.22421 10.3116C2.12423 11.1941 1.76653 12.0247 1.1984 12.6934C-0.00724041 14.1125 0.971274 16.3333 2.80215 16.3333H17.1985C19.0294 16.3333 20.0079 14.1125 18.8023 12.6934C18.2341 12.0247 17.8764 11.1942 17.7764 10.3116L17.3741 6.75971C16.9375 2.906 13.7676 0 10.0003 0ZM13.4675 18.75C12.9339 20.0656 11.5826 20.9999 10 20.9999C8.41738 20.9999 7.06613 20.0656 6.53254 18.75C6.5103 18.6952 6.5 18.6363 6.5 18.5771C6.5 18.3043 6.7211 18.0833 6.99383 18.0833H13.0062C13.2789 18.0833 13.5 18.3043 13.5 18.5771C13.5 18.6363 13.4897 18.6952 13.4675 18.75Z" fill="#e5e7eb"/>
</svg>
