<svg width="24" height="24" viewBox="0 0 24 24" xmlns="http://www.w3.org/2000/svg">
<path fill-rule="evenodd" clip-rule="evenodd" d="M12 4.74187C10.5569 4.74187 9.38708 5.91171 9.38708 7.35478C9.38708 8.79786 10.5569 9.9677 12 9.9677C13.4431 9.9677 14.6129 8.79786 14.6129 7.35478C14.6129 5.91171 13.4431 4.74187 12 4.74187ZM7.64513 7.35478C7.64513 4.94966 9.59487 2.99992 12 2.99992C14.4051 2.99992 16.3549 4.94966 16.3549 7.35478C16.3549 9.7599 14.4051 11.7096 12 11.7096C9.59487 11.7096 7.64513 9.7599 7.64513 7.35478Z" fill="#ffffff"/>
<path fill-rule="evenodd" clip-rule="evenodd" d="M5.32538 15.9048C6.64854 14.4911 8.7809 13.4515 12 13.4515C15.2191 13.4515 17.3515 14.4911 18.6746 15.9048C19.975 17.294 20.4194 18.9665 20.4194 20.129C20.4194 20.61 20.0294 21 19.5484 21H4.45158C3.97055 21 3.5806 20.61 3.5806 20.129C3.5806 18.9665 4.025 17.294 5.32538 15.9048ZM5.43148 19.258H18.5685C18.4084 18.5812 18.0553 17.7922 17.4029 17.0951C16.4615 16.0894 14.8196 15.1935 12 15.1935C9.18036 15.1935 7.53851 16.0894 6.59714 17.0951C5.94468 17.7922 5.59159 18.5812 5.43148 19.258Z" fill="#ffffff"/>
</svg>
