<svg width="89" height="104" viewBox="0 0 89 104" fill="none" xmlns="http://www.w3.org/2000/svg">
<g id="Upload Single File">
<g id="Group 47170">
<path id="Vector" d="M44.7599 72.0729C62.0406 72.0729 76.1213 58.0505 76.1213 40.8279C76.0631 23.5471 62.0406 9.52466 44.7599 9.52466C27.4209 9.52466 13.3984 23.5471 13.3984 40.7697C13.3984 58.0505 27.4209 72.0729 44.7599 72.0729Z" fill="#CCE1E6"/>
<path id="Vector_2" d="M76.8777 29.8893C78.1953 29.8893 79.2633 28.8212 79.2633 27.5037C79.2633 26.1862 78.1953 25.1182 76.8777 25.1182C75.5602 25.1182 74.4922 26.1862 74.4922 27.5037C74.4922 28.8212 75.5602 29.8893 76.8777 29.8893Z" fill="#DFE7E8"/>
<path id="Vector_3" d="M80.3694 20.5799C81.2692 20.5799 81.9986 19.8505 81.9986 18.9507C81.9986 18.0509 81.2692 17.3215 80.3694 17.3215C79.4696 17.3215 78.7402 18.0509 78.7402 18.9507C78.7402 19.8505 79.4696 20.5799 80.3694 20.5799Z" fill="#DFE7E8"/>
<path id="Vector_4" d="M10.7229 61.7743C12.3938 61.7743 13.7484 60.4197 13.7484 58.7487C13.7484 57.0777 12.3938 55.7231 10.7229 55.7231C9.05187 55.7231 7.69727 57.0777 7.69727 58.7487C7.69727 60.4197 9.05187 61.7743 10.7229 61.7743Z" fill="#DFE7E8"/>
</g>
<g id="Group 47171">
<g id="Group 47159">
<g id="Vector_5" filter="url(#filter0_d_13257_7302)">
<path d="M66.7596 27.6602V65.5565C66.7596 68.3178 64.5697 70.5077 61.8084 70.5077H27.7208C24.9595 70.5077 22.7695 68.3178 22.7695 65.5565V15.9486C22.7695 13.1873 24.9595 10.9973 27.7208 10.9973H50.1919C51.4298 10.9973 52.5724 11.4734 53.4293 12.3303L65.4266 24.3277C66.2836 25.2798 66.7596 26.4224 66.7596 27.6602Z" fill="url(#paint0_linear_13257_7302)"/>
</g>
<g id="Intersect" filter="url(#filter1_d_13257_7302)">
<path d="M52.4492 11.5845V22.0227C52.4492 24.0421 54.1593 25.6577 56.1026 25.6577H66.314C66.0938 25.1841 65.7951 24.7382 65.4257 24.3277L53.4284 12.3304C53.1333 12.0353 52.8043 11.7854 52.4492 11.5845Z" fill="#D5DDEA"/>
</g>
<g id="Group 47168">
<path id="Vector_6" d="M37.4774 60.1884H29.5372C29.2409 60.1884 29.0039 59.8735 29.0039 59.4956C29.0039 59.1177 29.2409 58.8027 29.5372 58.8027H37.4774C37.7736 58.8027 38.0107 59.1177 38.0107 59.4956C38.0107 59.9365 37.7736 60.1884 37.4774 60.1884Z" fill="#D5DDEA"/>
<path id="Vector_7" d="M47.6318 21.3898H29.7751C29.3599 21.3898 29.0039 21.07 29.0039 20.697C29.0039 20.3239 29.3599 20.0042 29.7751 20.0042H47.6318C48.0471 20.0042 48.4031 20.3239 48.4031 20.697C48.4031 21.07 48.0471 21.3898 47.6318 21.3898Z" fill="#D6DCE8"/>
<path id="Vector_8" d="M36.6103 25.547H29.7704C29.3577 25.547 29.0039 25.2273 29.0039 24.8542C29.0039 24.4811 29.3577 24.1614 29.7704 24.1614H36.5513C36.964 24.1614 37.3178 24.4811 37.3178 24.8542C37.3178 25.2273 36.964 25.547 36.6103 25.547Z" fill="#D6DCE8"/>
<path id="Vector_9" d="M60.3147 49.7959H39.4926H37.1977H30.257C29.9771 49.7959 29.6973 50.0846 29.6973 50.4887C29.6973 50.8351 29.9212 51.1816 30.257 51.1816H37.1977H39.4926H60.3147C60.5946 51.1816 60.8745 50.8929 60.8745 50.4887C60.8185 50.0846 60.5946 49.7959 60.3147 49.7959Z" fill="#D6DCE8"/>
<path id="Vector_10" d="M60.3137 44.946H52.5755H49.94H30.258C29.9776 44.946 29.6973 45.2347 29.6973 45.6389C29.6973 45.9853 29.9216 46.3317 30.258 46.3317H49.94H52.5755H60.3137C60.5941 46.3317 60.8745 46.043 60.8745 45.6389C60.8184 45.2347 60.5941 44.946 60.3137 44.946Z" fill="#D6DCE8"/>
<path id="Vector_11" d="M60.3645 40.0962H58.3536H56.3426H30.2559C29.9766 40.0962 29.6973 40.3849 29.6973 40.789C29.6973 41.1354 29.9207 41.4818 30.2559 41.4818H56.3426H58.577H60.3087C60.588 41.4818 60.8673 41.1932 60.8673 40.789C60.9231 40.4426 60.6438 40.0962 60.3645 40.0962Z" fill="#D6DCE8"/>
<path id="Vector_12" d="M60.3207 35.2463H53.8416H52.2357H30.251C29.9742 35.2463 29.6973 35.535 29.6973 35.9392C29.6973 36.2856 29.9188 36.632 30.251 36.632H52.2357H53.8416H60.2653C60.653 36.632 60.8745 36.3433 60.8745 35.9392C60.8745 35.5928 60.653 35.2463 60.3207 35.2463Z" fill="#D6DCE8"/>
</g>
<path id="Vector_13" d="M60.6709 70.618C67.4337 70.618 72.9161 65.1356 72.9161 58.3728C72.9161 51.61 67.4337 46.1277 60.6709 46.1277C53.9081 46.1277 48.4258 51.61 48.4258 58.3728C48.4258 65.1356 53.9081 70.618 60.6709 70.618Z" fill="#016B83"/>
<path id="Vector_14" d="M61.4157 53.46L64.4827 56.7163C64.8435 57.0994 64.8435 57.7699 64.4827 58.153C64.1219 58.5361 63.4904 58.5361 63.0845 58.153L61.6864 56.7163V61.984C61.6864 62.5586 61.2353 63.0375 60.6941 63.0375C60.1529 63.0375 59.7019 62.5586 59.7019 61.984V56.7163L58.3037 58.153C57.9429 58.5361 57.3115 58.5361 56.9056 58.153C56.68 57.9135 56.5898 57.6741 56.5898 57.4346C56.5898 57.1952 56.68 56.86 56.9056 56.7163L59.9725 53.46C60.1078 53.3163 60.4235 53.1248 60.649 53.1248C60.8745 53.1248 61.2804 53.2205 61.4157 53.46Z" fill="white"/>
</g>
</g>
</g>
<defs>
<filter id="filter0_d_13257_7302" x="0.769531" y="-0.00268555" width="87.9902" height="103.51" filterUnits="userSpaceOnUse" color-interpolation-filters="sRGB">
<feFlood flood-opacity="0" result="BackgroundImageFix"/>
<feColorMatrix in="SourceAlpha" type="matrix" values="0 0 0 0 0 0 0 0 0 0 0 0 0 0 0 0 0 0 127 0" result="hardAlpha"/>
<feOffset dy="11"/>
<feGaussianBlur stdDeviation="11"/>
<feColorMatrix type="matrix" values="0 0 0 0 0.397708 0 0 0 0 0.47749 0 0 0 0 0.575 0 0 0 0.27 0"/>
<feBlend mode="normal" in2="BackgroundImageFix" result="effect1_dropShadow_13257_7302"/>
<feBlend mode="normal" in="SourceGraphic" in2="effect1_dropShadow_13257_7302" result="shape"/>
</filter>
<filter id="filter1_d_13257_7302" x="30.4492" y="0.584473" width="57.8652" height="58.0732" filterUnits="userSpaceOnUse" color-interpolation-filters="sRGB">
<feFlood flood-opacity="0" result="BackgroundImageFix"/>
<feColorMatrix in="SourceAlpha" type="matrix" values="0 0 0 0 0 0 0 0 0 0 0 0 0 0 0 0 0 0 127 0" result="hardAlpha"/>
<feOffset dy="11"/>
<feGaussianBlur stdDeviation="11"/>
<feColorMatrix type="matrix" values="0 0 0 0 0.397708 0 0 0 0 0.47749 0 0 0 0 0.575 0 0 0 0.27 0"/>
<feBlend mode="normal" in2="BackgroundImageFix" result="effect1_dropShadow_13257_7302"/>
<feBlend mode="normal" in="SourceGraphic" in2="effect1_dropShadow_13257_7302" result="shape"/>
</filter>
<linearGradient id="paint0_linear_13257_7302" x1="44.7502" y1="9.62078" x2="44.7502" y2="71.1493" gradientUnits="userSpaceOnUse">
<stop stop-color="#FDFEFF"/>
<stop offset="0.9964" stop-color="#ECF0F5"/>
</linearGradient>
</defs>
</svg>
