<svg width="118" height="109" viewBox="0 0 118 95" fill="none" xmlns="http://www.w3.org/2000/svg">
<g id="Write Content">
<path id="Vector" d="M59.244 61.6269C75.9833 61.6269 89.5319 47.9984 89.5319 31.1833C89.5319 14.3683 75.9833 0.788818 59.244 0.788818C42.5537 0.788818 28.9561 14.4173 28.9561 31.2324C28.9561 48.0474 42.5537 61.6269 59.244 61.6269Z" fill="#E5ECED"/>
<path id="Vector (Stroke)" fill-rule="evenodd" clip-rule="evenodd" d="M17.123 62.3238C17.123 61.868 17.4925 61.4985 17.9483 61.4985H101.035C101.49 61.4985 101.86 61.868 101.86 62.3238C101.86 62.7796 101.49 63.1491 101.035 63.1491H17.9483C17.4925 63.1491 17.123 62.7796 17.123 62.3238Z" fill="#EAEEF9"/>
<path id="Vector_2" d="M25.3242 27.5556C26.4532 27.5556 27.3368 26.6731 27.3368 25.5456C27.3368 24.4181 26.4532 23.5356 25.3242 23.5356C24.1951 23.5356 23.3115 24.4181 23.3115 25.5456C23.3115 26.6731 24.2442 27.5556 25.3242 27.5556Z" fill="#E4EBEC"/>
<path id="Vector_3" d="M23.311 21.0356C24.0473 21.0356 24.6855 20.3983 24.6855 19.6629C24.6855 18.9276 24.0473 18.2903 23.311 18.2903C22.5747 18.2903 21.9365 18.9276 21.9365 19.6629C21.9365 20.4473 22.5747 21.0356 23.311 21.0356Z" fill="#E4EBEC"/>
<path id="Vector_4" d="M95.3231 32.6048C96.7467 32.6048 97.8758 31.4772 97.8758 30.0556C97.8758 28.6339 96.7467 27.5063 95.3231 27.5063C93.8996 27.5063 92.7705 28.6339 92.7705 30.0556C92.7705 31.4772 93.8996 32.6048 95.3231 32.6048Z" fill="#E4EBEC"/>
<g id="Group 47166">
<g id="Group 47164">
<g id="Vector_5" filter="url(#filter0_d_13257_6920)">
<path d="M89.6782 56.6646H95.2668C95.2668 59.4062 93.1052 61.6205 90.5218 61.6732C90.5218 61.6732 90.469 61.6732 90.4163 61.6732H73.5449V56.7173H86.3566L89.6782 56.6646Z" fill="#EAEEF9"/>
</g>
<path id="Vector_6" d="M88.2534 60.4603C88.2007 60.4075 88.148 60.3548 88.0952 60.2494C87.5153 59.564 87.0935 58.615 87.0935 57.6659V28.0883C87.0408 25.3467 84.9846 23.185 82.3484 23.1323C82.3484 23.1323 82.2957 23.1323 82.243 23.1323H65.4243V28.0883H58.5703V57.3496C58.623 58.3513 59.0448 59.3004 59.6248 59.933C61.8391 62.2001 59.8357 61.6729 62.3664 61.6729H90.8368C89.8351 61.6202 88.9388 61.1457 88.2534 60.4603Z" fill="#D5DDEA"/>
<g id="Vector_7" filter="url(#filter1_d_13257_6920)">
<path d="M82.4023 23.1326C81.4533 23.1326 80.557 23.7125 79.9771 24.3979C79.3971 25.136 78.9226 26.6123 78.9226 27.5613V56.8226C78.9226 59.6169 76.7082 61.8313 74.0194 61.8313H50.4521V26.8232C50.5049 25.8214 50.9267 24.8724 51.5066 24.2397C52.2447 23.5016 52.9301 23.1326 53.9846 23.1326L78.0263 23.0798L82.2442 23.1326C82.3496 23.1326 82.3496 23.1326 82.4023 23.1326Z" fill="url(#paint0_linear_13257_6920)"/>
</g>
<path id="Vector_8" d="M65.5302 11.7444C64.5285 11.7971 63.6322 12.2716 62.9468 12.9043C62.894 12.957 62.8413 13.0097 62.7886 13.1152C62.2086 13.8006 61.7341 14.8023 61.7341 15.7513V33.3608H33.2637V15.5404C33.3164 14.5387 33.7382 13.5897 34.3181 12.957C35.0563 12.2189 36.0053 11.7444 37.1125 11.7444H65.5302Z" fill="#E7EBF0"/>
<path id="Vector_9" d="M71.1196 60.6712C70.3815 59.933 70.0124 58.9313 70.0124 57.8768L69.9597 16.8056C69.9597 14.064 67.8508 11.8496 65.2146 11.7969C65.2146 11.7969 65.1619 11.7969 65.1092 11.7969H64.8983H64.7928H48.2378H47.1833V16.8056H41.3838V29.5118H41.8583V57.8768C41.8583 58.984 42.3328 60.0385 42.9655 60.6712C43.6509 61.462 44.6526 61.8311 45.6544 61.8311H73.8085C72.754 61.8311 71.7523 61.3038 71.1196 60.6712Z" fill="#D5DDEA"/>
<g id="Vector_10" filter="url(#filter2_d_13257_6920)">
<path d="M65.1627 11.7444C64.1082 11.7971 63.1592 12.2189 62.4738 12.957C62.4211 13.0097 62.3684 13.0625 62.2629 13.1679C61.6302 13.906 61.2084 14.8023 61.2084 15.8568V56.7699C61.2084 59.6169 58.9414 61.884 56.147 61.884H31.3672V15.5932C31.4199 14.5387 31.8417 13.5897 32.5271 12.9043C33.2652 12.2189 34.267 11.7444 35.3741 11.7444H60.2594H65.0045C65.0572 11.7444 65.11 11.7444 65.1627 11.7444Z" fill="url(#paint1_linear_13257_6920)"/>
</g>
<path id="Vector_11" d="M56.1468 18.7037H48.7655C48.5019 18.7037 48.291 18.4928 48.291 18.2291C48.291 17.9655 48.5019 17.7546 48.7655 17.7546H56.094C56.3576 17.7546 56.5685 17.9655 56.5685 18.2291C56.6213 18.4928 56.4104 18.7037 56.1468 18.7037Z" fill="#989FB0"/>
<path id="Vector_12" d="M45.3377 18.7037H35.7421C35.4785 18.7037 35.2676 18.4928 35.2676 18.2291C35.2676 17.9655 35.4785 17.7546 35.7421 17.7546H45.3377C45.6013 17.7546 45.8122 17.9655 45.8122 18.2291C45.8122 18.4928 45.6013 18.7037 45.3377 18.7037Z" fill="#D6DCE8"/>
<path id="Vector_13" d="M51.4549 23.5017H41.912C41.6484 23.5017 41.4375 23.2909 41.4375 23.0272C41.4375 22.7636 41.6484 22.5527 41.912 22.5527H51.4549C51.7185 22.5527 51.9294 22.7636 51.9294 23.0272C51.9821 23.2909 51.7712 23.5017 51.4549 23.5017Z" fill="#989FB0"/>
<path id="Vector_14" d="M38.8527 23.5017H35.7421C35.4785 23.5017 35.2676 23.2909 35.2676 23.0272C35.2676 22.7636 35.4785 22.5527 35.7421 22.5527H38.8527C39.1164 22.5527 39.3273 22.7636 39.3273 23.0272C39.3273 23.2909 39.1164 23.5017 38.8527 23.5017Z" fill="#D6DCE8"/>
<path id="Vector_15" d="M56.1471 28.2991H50.2948C50.0312 28.2991 49.8203 28.0882 49.8203 27.8246C49.8203 27.561 50.0312 27.3501 50.2948 27.3501H56.1471C56.4107 27.3501 56.6216 27.561 56.6216 27.8246C56.6216 28.0882 56.4107 28.2991 56.1471 28.2991Z" fill="#D6DCE8"/>
<path id="Vector_16" d="M47.4466 28.2991H35.7421C35.4785 28.2991 35.2676 28.0882 35.2676 27.8246C35.2676 27.561 35.4785 27.3501 35.7421 27.3501H47.4466C47.7102 27.3501 47.9211 27.561 47.9211 27.8246C47.9211 28.0882 47.7629 28.2991 47.4466 28.2991Z" fill="#989FB0"/>
<path id="Vector_17" d="M51.4546 33.1499H45.0224C44.7587 33.1499 44.5479 32.9391 44.5479 32.6754C44.5479 32.4118 44.7587 32.2009 45.0224 32.2009H51.4546C51.7182 32.2009 51.9291 32.4118 51.9291 32.6754C51.9818 32.8863 51.7709 33.1499 51.4546 33.1499Z" fill="#989FB0"/>
<path id="Vector_18" d="M42.227 33.1499H35.7421C35.4785 33.1499 35.2676 32.9391 35.2676 32.6754C35.2676 32.4118 35.4785 32.2009 35.7421 32.2009H42.227C42.4906 32.2009 42.7015 32.4118 42.7015 32.6754C42.7015 32.9391 42.4906 33.1499 42.227 33.1499Z" fill="#D6DCE8"/>
<path id="Vector_19" d="M56.1464 37.9476H51.6649C51.4013 37.9476 51.1904 37.7367 51.1904 37.473C51.1904 37.2094 51.4013 36.9985 51.6649 36.9985H56.1464C56.41 36.9985 56.6209 37.2094 56.6209 37.473C56.6209 37.7367 56.41 37.9476 56.1464 37.9476Z" fill="#989FB0"/>
<path id="Vector_20" d="M48.7131 37.9476H41.1737C40.9101 37.9476 40.6992 37.7367 40.6992 37.473C40.6992 37.2094 40.9101 36.9985 41.1737 36.9985H48.7131C48.9767 36.9985 49.1876 37.2094 49.1876 37.473C49.1876 37.7367 48.9767 37.9476 48.7131 37.9476Z" fill="#D6DCE8"/>
<path id="Vector_21" d="M38.3782 37.9476H35.7421C35.4785 37.9476 35.2676 37.7367 35.2676 37.473C35.2676 37.2094 35.4785 36.9985 35.7421 36.9985H38.3782C38.6419 36.9985 38.8527 37.2094 38.8527 37.473C38.8527 37.7367 38.5891 37.9476 38.3782 37.9476Z" fill="#989FB0"/>
<path id="Vector_22" d="M56.1471 47.649H50.2948C50.0312 47.649 49.8203 47.4381 49.8203 47.1745C49.8203 46.9108 50.0312 46.7 50.2948 46.7H56.1471C56.4107 46.7 56.6216 46.9108 56.6216 47.1745C56.6216 47.4381 56.4107 47.649 56.1471 47.649Z" fill="#D6DCE8"/>
<path id="Vector_23" d="M47.4466 47.649H35.7421C35.4785 47.649 35.2676 47.4381 35.2676 47.1745C35.2676 46.9108 35.4785 46.7 35.7421 46.7H47.4466C47.7102 46.7 47.9211 46.9108 47.9211 47.1745C47.9211 47.4381 47.7629 47.649 47.4466 47.649Z" fill="#989FB0"/>
<path id="Vector_24" d="M51.4546 52.4993H45.0224C44.7587 52.4993 44.5479 52.2884 44.5479 52.0248C44.5479 51.7612 44.7587 51.5503 45.0224 51.5503H51.4546C51.7182 51.5503 51.9291 51.7612 51.9291 52.0248C51.9818 52.2357 51.7709 52.4993 51.4546 52.4993Z" fill="#989FB0"/>
<path id="Vector_25" d="M42.227 52.4993H35.7421C35.4785 52.4993 35.2676 52.2884 35.2676 52.0248C35.2676 51.7612 35.4785 51.5503 35.7421 51.5503H42.227C42.4906 51.5503 42.7015 51.7612 42.7015 52.0248C42.7015 52.2357 42.4906 52.4993 42.227 52.4993Z" fill="#D6DCE8"/>
<path id="Vector_26" d="M51.454 42.7454H46.9726C46.7089 42.7454 46.498 42.5345 46.498 42.2709C46.498 42.0073 46.7089 41.7964 46.9726 41.7964H51.454C51.7176 41.7964 51.9285 42.0073 51.9285 42.2709C51.9812 42.5345 51.7704 42.7454 51.454 42.7454Z" fill="#989FB0"/>
<path id="Vector_27" d="M44.0723 42.7454H35.7421C35.4785 42.7454 35.2676 42.5345 35.2676 42.2709C35.2676 42.0073 35.4785 41.7964 35.7421 41.7964H44.0723C44.3359 41.7964 44.5468 42.0073 44.5468 42.2709C44.5468 42.5345 44.3359 42.7454 44.0723 42.7454Z" fill="#D6DCE8"/>
<g id="Vector_28" filter="url(#filter3_d_13257_6920)">
<path d="M45.0742 57.8245H51.6119C51.6119 58.9316 52.0864 59.9334 52.7718 60.6715C53.5099 61.4096 54.5116 61.8314 55.5661 61.8314H26.1993C25.0922 61.8314 24.0904 61.3569 23.405 60.6715C22.6669 59.9334 22.1924 58.9316 22.1924 57.8245H41.5418C41.5418 57.8245 45.1796 57.8245 45.0742 57.8245Z" fill="url(#paint2_linear_13257_6920)"/>
</g>
</g>
<g id="Group 47165">
<g id="path50_1_" filter="url(#filter4_d_13257_6920)">
<path d="M56.8776 54.3245C53.8501 48.9942 54.1158 46.872 54.5587 45.1283C55.3414 45.4969 55.9286 45.8362 55.9286 45.8362C55.7916 45.7654 55.9633 44.6347 55.9825 44.5371C56.1149 43.3502 56.2281 42.2611 56.4582 41.0888C57.765 35.2009 61.7696 29.9181 66.4235 25.9391C67.3194 25.2185 68.2153 24.498 69.1313 23.9313C69.5988 23.5991 70.1057 23.323 70.5733 22.9908C70.6902 22.9078 71.9769 22.2457 71.8984 22.1334C72.0354 27.584 72.1442 30.6169 73.8912 32.9902C72.3506 33.6645 71.5898 33.9528 69.6757 33.9678C72.5543 35.9575 73.4511 35.4885 73.4511 35.4885C73.4511 35.4885 73.137 40.419 65.4484 47.8149C66.7799 48.7182 67.19 48.679 67.19 48.679C67.19 48.679 62.5616 54.321 57.8931 54.2755C56.8776 54.3245 56.8776 54.3245 56.8776 54.3245Z" fill="#016B83" fill-opacity="0.6"/>
</g>
<path id="path52_1_" d="M55.9868 61.9827C56.7994 54.5135 57.3088 44.2341 62.8021 34.9524C68.3146 25.573 72.81 21.1185 72.81 21.1185L72.4036 22.1636C72.4036 22.1636 65.9049 28.8818 62.016 38.9568C58.1462 48.9341 57.9381 56.1419 57.5638 60.6102C55.9868 61.9827 55.9868 61.9827 55.9868 61.9827Z" fill="#016B83"/>
</g>
</g>
</g>
<defs>
<filter id="filter0_d_13257_6920" x="51.5449" y="45.6646" width="65.7217" height="49.0088" filterUnits="userSpaceOnUse" color-interpolation-filters="sRGB">
<feFlood flood-opacity="0" result="BackgroundImageFix"/>
<feColorMatrix in="SourceAlpha" type="matrix" values="0 0 0 0 0 0 0 0 0 0 0 0 0 0 0 0 0 0 127 0" result="hardAlpha"/>
<feOffset dy="11"/>
<feGaussianBlur stdDeviation="11"/>
<feColorMatrix type="matrix" values="0 0 0 0 0.397708 0 0 0 0 0.47749 0 0 0 0 0.575 0 0 0 0.27 0"/>
<feBlend mode="normal" in2="BackgroundImageFix" result="effect1_dropShadow_13257_6920"/>
<feBlend mode="normal" in="SourceGraphic" in2="effect1_dropShadow_13257_6920" result="shape"/>
</filter>
<filter id="filter1_d_13257_6920" x="28.4521" y="12.0798" width="75.9502" height="82.7515" filterUnits="userSpaceOnUse" color-interpolation-filters="sRGB">
<feFlood flood-opacity="0" result="BackgroundImageFix"/>
<feColorMatrix in="SourceAlpha" type="matrix" values="0 0 0 0 0 0 0 0 0 0 0 0 0 0 0 0 0 0 127 0" result="hardAlpha"/>
<feOffset dy="11"/>
<feGaussianBlur stdDeviation="11"/>
<feColorMatrix type="matrix" values="0 0 0 0 0.397708 0 0 0 0 0.47749 0 0 0 0 0.575 0 0 0 0.27 0"/>
<feBlend mode="normal" in2="BackgroundImageFix" result="effect1_dropShadow_13257_6920"/>
<feBlend mode="normal" in="SourceGraphic" in2="effect1_dropShadow_13257_6920" result="shape"/>
</filter>
<filter id="filter2_d_13257_6920" x="9.36719" y="0.744385" width="77.7959" height="94.1396" filterUnits="userSpaceOnUse" color-interpolation-filters="sRGB">
<feFlood flood-opacity="0" result="BackgroundImageFix"/>
<feColorMatrix in="SourceAlpha" type="matrix" values="0 0 0 0 0 0 0 0 0 0 0 0 0 0 0 0 0 0 127 0" result="hardAlpha"/>
<feOffset dy="11"/>
<feGaussianBlur stdDeviation="11"/>
<feColorMatrix type="matrix" values="0 0 0 0 0.397708 0 0 0 0 0.47749 0 0 0 0 0.575 0 0 0 0.27 0"/>
<feBlend mode="normal" in2="BackgroundImageFix" result="effect1_dropShadow_13257_6920"/>
<feBlend mode="normal" in="SourceGraphic" in2="effect1_dropShadow_13257_6920" result="shape"/>
</filter>
<filter id="filter3_d_13257_6920" x="0.192383" y="46.8245" width="77.374" height="48.0068" filterUnits="userSpaceOnUse" color-interpolation-filters="sRGB">
<feFlood flood-opacity="0" result="BackgroundImageFix"/>
<feColorMatrix in="SourceAlpha" type="matrix" values="0 0 0 0 0 0 0 0 0 0 0 0 0 0 0 0 0 0 127 0" result="hardAlpha"/>
<feOffset dy="11"/>
<feGaussianBlur stdDeviation="11"/>
<feColorMatrix type="matrix" values="0 0 0 0 0.397708 0 0 0 0 0.47749 0 0 0 0 0.575 0 0 0 0.27 0"/>
<feBlend mode="normal" in2="BackgroundImageFix" result="effect1_dropShadow_13257_6920"/>
<feBlend mode="normal" in="SourceGraphic" in2="effect1_dropShadow_13257_6920" result="shape"/>
</filter>
<filter id="filter4_d_13257_6920" x="32.29" y="11.1333" width="63.6016" height="76.1912" filterUnits="userSpaceOnUse" color-interpolation-filters="sRGB">
<feFlood flood-opacity="0" result="BackgroundImageFix"/>
<feColorMatrix in="SourceAlpha" type="matrix" values="0 0 0 0 0 0 0 0 0 0 0 0 0 0 0 0 0 0 127 0" result="hardAlpha"/>
<feOffset dy="11"/>
<feGaussianBlur stdDeviation="11"/>
<feColorMatrix type="matrix" values="0 0 0 0 0.397708 0 0 0 0 0.47749 0 0 0 0 0.575 0 0 0 0.27 0"/>
<feBlend mode="normal" in2="BackgroundImageFix" result="effect1_dropShadow_13257_6920"/>
<feBlend mode="normal" in="SourceGraphic" in2="effect1_dropShadow_13257_6920" result="shape"/>
</filter>
<linearGradient id="paint0_linear_13257_6920" x1="66.4168" y1="22.1835" x2="66.4168" y2="62.2491" gradientUnits="userSpaceOnUse">
<stop stop-color="#FDFEFF"/>
<stop offset="0.9964" stop-color="#ECF0F5"/>
</linearGradient>
<linearGradient id="paint1_linear_13257_6920" x1="48.2539" y1="10.5846" x2="48.2539" y2="62.4246" gradientUnits="userSpaceOnUse">
<stop stop-color="#FDFEFF"/>
<stop offset="0.9964" stop-color="#ECF0F5"/>
</linearGradient>
<linearGradient id="paint2_linear_13257_6920" x1="38.8684" y1="57.7318" x2="38.8684" y2="61.8746" gradientUnits="userSpaceOnUse">
<stop stop-color="#FDFEFF"/>
<stop offset="0.9964" stop-color="#ECF0F5"/>
</linearGradient>
</defs>
</svg>
