<svg width="27" height="28" viewBox="0 0 27 28" fill="none" xmlns="http://www.w3.org/2000/svg">
<g id="Group">
<path id="Vector" d="M13.5018 27.4928C10.0398 27.4928 6.58493 26.1794 3.95096 23.5455C-1.31699 18.2775 -1.31699 9.71176 3.95096 4.45096C9.2189 -0.816985 17.7847 -0.816985 23.0455 4.45096C25.5938 6.99927 27 10.3899 27 14.0018C27 17.6137 25.5938 20.9971 23.0455 23.5526C20.4115 26.1866 16.9566 27.5 13.4946 27.5L13.5018 27.4928ZM13.5018 3.20892C10.7393 3.20892 7.97686 4.25823 5.87112 6.36398C1.66676 10.5683 1.66676 17.4138 5.87112 21.6182C10.0755 25.8225 16.9209 25.8225 21.1253 21.6182C23.1597 19.5838 24.2875 16.8713 24.2875 13.9875C24.2875 11.1037 23.1668 8.39834 21.1253 6.35684C19.0196 4.25109 16.2571 3.20178 13.4946 3.20178L13.5018 3.20892Z" fill="#016B83"/>
<path id="Vector_2" d="M14.7367 12.5956H20.1475V14.9298H14.7367V21.0614H12.2598V14.9298H6.84912V12.5956H12.2598V6.92795H14.7367V12.5956Z" fill="#016B83"/>
</g>
</svg>
