<svg width="16" height="16" viewBox="0 0 16 16" fill="none" xmlns="http://www.w3.org/2000/svg">
<g id="id">
<path id="Vector" fill-rule="evenodd" clip-rule="evenodd" d="M6.18127 1.21199C6.23692 0.989399 6.43691 0.833252 6.66634 0.833252H9.33301C9.56247 0.833252 9.76241 0.989399 9.81807 1.21199L10.0567 2.16659H13.6663C13.7989 2.16659 13.9261 2.21927 14.0199 2.31303C14.1137 2.4068 14.1663 2.53398 14.1663 2.66659V14.6666C14.1663 14.9427 13.9425 15.1666 13.6663 15.1666H2.33301C2.2004 15.1666 2.07322 15.1139 1.97945 15.0201C1.88569 14.9264 1.83301 14.7992 1.83301 14.6666V2.66659C1.83301 2.39045 2.05687 2.16659 2.33301 2.16659H5.94262L6.18127 1.21199ZM6.64007 3.49992H9.35927L8.94261 1.83325H7.05674L6.64007 3.49992ZM7.99527 6.16658C6.98967 6.16658 6.19714 7.00012 6.19714 7.99992C6.19714 8.99972 6.98967 9.83325 7.99527 9.83325C9.00087 9.83325 9.79341 8.99972 9.79341 7.99992C9.79341 7.00012 9.00087 6.16658 7.99527 6.16658ZM10.7054 11.6663C9.27541 10.0703 6.69714 10.1545 5.29988 11.6598L5.16634 11.8037V13.1666H10.833V11.8087L10.7054 11.6663Z" fill="#8C929A"/>
</g>
</svg>
