<svg width="16" height="16" viewBox="0 0 16 16" fill="none" xmlns="http://www.w3.org/2000/svg">
<g id="fi_483462">
<g id="Group">
<g id="Group_2">
<path id="Vector" d="M10.4545 4C9.50742 4 8.61681 4.36887 7.94777 5.03845L3.0387 9.94752C2.36913 10.6173 2 11.5077 2 12.4545C2 14.4094 3.59054 16 5.54545 16C6.49308 16 7.38315 15.6311 8.05219 14.9615L12.9613 10.0527C13.6314 9.38287 14 8.49251 14 7.54542C13.9999 5.59054 12.4094 4 10.4545 4ZM5.83201 9.46837L4.19566 11.1045C3.83505 11.4651 3.63636 11.9447 3.63636 12.4545C3.63636 12.6053 3.51437 12.7273 3.36362 12.7273C3.21287 12.7273 3.09089 12.6053 3.09089 12.4545C3.09089 11.7988 3.34603 11.1825 3.80999 10.7188L5.44635 9.08273C5.55289 8.97619 5.72547 8.97619 5.83199 9.08273C5.93856 9.18924 5.93856 9.36183 5.83201 9.46837ZM12.1899 9.28139L9.92828 11.5428L6.45733 8.07149L8.71908 5.80973C9.18251 5.34606 9.7988 5.09089 10.4545 5.09089C11.808 5.09089 12.9091 6.19193 12.9091 7.54542C12.9091 8.20114 12.6539 8.81772 12.1899 9.28139Z" fill="#8C929A"/>
</g>
</g>
</g>
</svg>
