<svg width="92" height="109" viewBox="0 0 92 109" fill="none" xmlns="http://www.w3.org/2000/svg">
<g id="Upload Single File">
<g id="Group 47170">
<path id="Vector" d="M45.7556 77.5979C64.4315 77.5979 79.6489 62.4434 79.6489 43.8304C79.586 25.1545 64.4315 10 45.7556 10C27.0168 10 11.8623 25.1545 11.8623 43.7675C11.8623 62.4434 27.0168 77.5979 45.7556 77.5979Z" fill="#E5ECED"/>
<path id="Vector_2" d="M80.4658 32.0086C81.8897 32.0086 83.044 30.8543 83.044 29.4304C83.044 28.0066 81.8897 26.8523 80.4658 26.8523C79.042 26.8523 77.8877 28.0066 77.8877 29.4304C77.8877 30.8543 79.042 32.0086 80.4658 32.0086Z" fill="#DFE7E8"/>
<path id="Vector_3" d="M84.2392 21.9475C85.2116 21.9475 85.9999 21.1592 85.9999 20.1868C85.9999 19.2144 85.2116 18.4261 84.2392 18.4261C83.2668 18.4261 82.4785 19.2144 82.4785 20.1868C82.4785 21.1592 83.2668 21.9475 84.2392 21.9475Z" fill="#DFE7E8"/>
<path id="Vector_4" d="M8.97005 66.4678C10.7759 66.4678 12.2399 65.0038 12.2399 63.198C12.2399 61.3921 10.7759 59.9281 8.97005 59.9281C7.16416 59.9281 5.7002 61.3921 5.7002 63.198C5.7002 65.0038 7.16416 66.4678 8.97005 66.4678Z" fill="#DFE7E8"/>
</g>
<g id="Group 47171">
<g id="Group 47159">
<g id="Vector_5" filter="url(#filter0_d_13257_7000)">
<path d="M69.5317 29.6001V70.5557C69.5317 73.5399 67.165 75.9067 64.1807 75.9067H27.3412C24.357 75.9067 21.9902 73.5399 21.9902 70.5557V16.9429C21.9902 13.9587 24.357 11.5919 27.3412 11.5919H51.6265C52.9642 11.5919 54.1991 12.1064 55.1252 13.0326L68.0911 25.9984C69.0172 27.0275 69.5317 28.2623 69.5317 29.6001Z" fill="url(#paint0_linear_13257_7000)"/>
</g>
<g id="Intersect" filter="url(#filter1_d_13257_7000)">
<path d="M54.0674 12.2264V23.5073C54.0674 25.6898 55.9155 27.4358 58.0157 27.4358H69.0515C68.8135 26.9239 68.4907 26.4421 68.0915 25.9985L55.1256 13.0326C54.8067 12.7137 54.4511 12.4435 54.0674 12.2264Z" fill="#D5DDEA"/>
</g>
<g id="Group 47168">
<path id="Vector_6" d="M37.887 64.7539H29.3058C28.9856 64.7539 28.7295 64.4135 28.7295 64.0051C28.7295 63.5967 28.9856 63.2563 29.3058 63.2563H37.887C38.2072 63.2563 38.4634 63.5967 38.4634 64.0051C38.4634 64.4816 38.2072 64.7539 37.887 64.7539Z" fill="#D5DDEA"/>
<path id="Vector_7" d="M48.8613 22.8232H29.563C29.1142 22.8232 28.7295 22.4776 28.7295 22.0744C28.7295 21.6713 29.1142 21.3257 29.563 21.3257H48.8613C49.3101 21.3257 49.6948 21.6713 49.6948 22.0744C49.6948 22.4776 49.3101 22.8232 48.8613 22.8232Z" fill="#D6DCE8"/>
<path id="Vector_8" d="M36.9499 27.3158H29.5579C29.1118 27.3158 28.7295 26.9702 28.7295 26.567C28.7295 26.1638 29.1118 25.8182 29.5579 25.8182H36.8862C37.3323 25.8182 37.7146 26.1638 37.7146 26.567C37.7146 26.9702 37.3323 27.3158 36.9499 27.3158Z" fill="#D6DCE8"/>
<path id="Vector_9" d="M62.5678 53.5223H40.0647H37.5845H30.0834C29.781 53.5223 29.4785 53.8343 29.4785 54.2711C29.4785 54.6455 29.7205 55.0199 30.0834 55.0199H37.5845H40.0647H62.5678C62.8702 55.0199 63.1727 54.7079 63.1727 54.2711C63.1122 53.8343 62.8702 53.5223 62.5678 53.5223Z" fill="#D6DCE8"/>
<path id="Vector_10" d="M62.5667 48.281H54.2038H51.3555H30.0845C29.7815 48.281 29.4785 48.593 29.4785 49.0298C29.4785 49.4041 29.7209 49.7785 30.0845 49.7785H51.3555H54.2038H62.5667C62.8697 49.7785 63.1727 49.4665 63.1727 49.0298C63.1121 48.593 62.8697 48.281 62.5667 48.281Z" fill="#D6DCE8"/>
<path id="Vector_11" d="M62.6216 43.0398H60.4483H58.275H30.0822C29.7804 43.0398 29.4785 43.3518 29.4785 43.7886C29.4785 44.1629 29.72 44.5373 30.0822 44.5373H58.275H60.6898H62.5612C62.8631 44.5373 63.1649 44.2253 63.1649 43.7886C63.2253 43.4142 62.9235 43.0398 62.6216 43.0398Z" fill="#D6DCE8"/>
<path id="Vector_12" d="M62.5742 37.7985H55.5721H53.8365H30.077C29.7778 37.7985 29.4785 38.1104 29.4785 38.5472C29.4785 38.9216 29.7179 39.296 30.077 39.296H53.8365H55.5721H62.5144C62.9333 39.296 63.1727 38.984 63.1727 38.5472C63.1727 38.1728 62.9333 37.7985 62.5742 37.7985Z" fill="#D6DCE8"/>
</g>
<path id="Vector_13" d="M62.9515 76.0258C70.2603 76.0258 76.1852 70.1009 76.1852 62.7921C76.1852 55.4833 70.2603 49.5583 62.9515 49.5583C55.6427 49.5583 49.7178 55.4833 49.7178 62.7921C49.7178 70.1009 55.6427 76.0258 62.9515 76.0258Z" fill="#016B83"/>
<path id="Vector_14" d="M63.7555 57.4829L67.0701 61.0021C67.46 61.4162 67.46 62.1407 67.0701 62.5547C66.6801 62.9688 65.9977 62.9688 65.559 62.5547L64.048 61.0021V66.695C64.048 67.3161 63.5606 67.8336 62.9757 67.8336C62.3907 67.8336 61.9033 67.3161 61.9033 66.695V61.0021L60.3923 62.5547C60.0023 62.9688 59.3199 62.9688 58.8812 62.5547C58.6375 62.296 58.54 62.0372 58.54 61.7784C58.54 61.5197 58.6375 61.1574 58.8812 61.0021L62.1958 57.4829C62.342 57.3276 62.6832 57.1206 62.9269 57.1206C63.1706 57.1206 63.6093 57.2241 63.7555 57.4829Z" fill="white"/>
</g>
</g>
</g>
<defs>
<filter id="filter0_d_13257_7000" x="-0.00976562" y="0.591919" width="91.541" height="108.315" filterUnits="userSpaceOnUse" color-interpolation-filters="sRGB">
<feFlood flood-opacity="0" result="BackgroundImageFix"/>
<feColorMatrix in="SourceAlpha" type="matrix" values="0 0 0 0 0 0 0 0 0 0 0 0 0 0 0 0 0 0 127 0" result="hardAlpha"/>
<feOffset dy="11"/>
<feGaussianBlur stdDeviation="11"/>
<feColorMatrix type="matrix" values="0 0 0 0 0.397708 0 0 0 0 0.47749 0 0 0 0 0.575 0 0 0 0.27 0"/>
<feBlend mode="normal" in2="BackgroundImageFix" result="effect1_dropShadow_13257_7000"/>
<feBlend mode="normal" in="SourceGraphic" in2="effect1_dropShadow_13257_7000" result="shape"/>
</filter>
<filter id="filter1_d_13257_7000" x="32.0674" y="1.22644" width="58.9844" height="59.2094" filterUnits="userSpaceOnUse" color-interpolation-filters="sRGB">
<feFlood flood-opacity="0" result="BackgroundImageFix"/>
<feColorMatrix in="SourceAlpha" type="matrix" values="0 0 0 0 0 0 0 0 0 0 0 0 0 0 0 0 0 0 127 0" result="hardAlpha"/>
<feOffset dy="11"/>
<feGaussianBlur stdDeviation="11"/>
<feColorMatrix type="matrix" values="0 0 0 0 0.397708 0 0 0 0 0.47749 0 0 0 0 0.575 0 0 0 0.27 0"/>
<feBlend mode="normal" in2="BackgroundImageFix" result="effect1_dropShadow_13257_7000"/>
<feBlend mode="normal" in="SourceGraphic" in2="effect1_dropShadow_13257_7000" result="shape"/>
</filter>
<linearGradient id="paint0_linear_13257_7000" x1="45.7455" y1="10.1043" x2="45.7455" y2="76.6001" gradientUnits="userSpaceOnUse">
<stop stop-color="#FDFEFF"/>
<stop offset="0.9964" stop-color="#ECF0F5"/>
</linearGradient>
</defs>
</svg>
